<svg version="1.1" id="Layer_1" xmlns="http://www.w3.org/2000/svg" xmlns:xlink="http://www.w3.org/1999/xlink" x="0px" y="0px"
	 width="100%" viewBox="0 0 435 392" enable-background="new 0 0 435 392" xml:space="preserve">
<path fill="#F8FAFB" opacity="1.000000" stroke="none" 
	d="
M304.000000,393.000000 
	C202.697144,393.000000 101.894287,393.000000 1.045716,393.000000 
	C1.045716,262.403320 1.045716,131.806625 1.045716,1.104958 
	C145.886139,1.104958 290.772369,1.104958 435.829285,1.104958 
	C435.829285,131.666489 435.829285,262.333221 435.829285,393.000000 
	C392.140015,393.000000 348.320007,393.000000 304.000000,393.000000 
M169.460098,314.596527 
	C178.973816,317.353180 188.487549,320.109833 198.782562,323.118652 
	C207.857254,323.650421 216.931931,324.182190 226.841156,324.841919 
	C242.765457,323.662811 258.232971,320.662994 273.303894,313.239929 
	C279.572784,309.752502 286.160004,306.731628 292.060913,302.704956 
	C346.183380,265.772858 363.798676,194.466232 332.852631,136.731033 
	C318.529175,110.008209 297.359467,90.437088 268.406860,78.571404 
	C255.081314,73.372009 241.256149,70.411911 226.092834,69.125595 
	C217.704575,69.652672 209.316315,70.179756 200.063385,70.680389 
	C189.027832,74.069588 177.992294,77.458794 166.238174,80.948250 
	C158.765015,85.428055 151.291855,89.907860 143.188416,94.714211 
	C137.055649,100.443207 130.922882,106.172203 124.207626,112.208481 
	C118.400955,120.774078 112.594284,129.339676 106.257965,138.339569 
	C98.527237,153.102066 93.915039,168.816483 92.535141,185.388840 
	C90.461319,210.295181 94.583290,234.032562 106.925117,256.803436 
	C112.881447,265.236511 118.837776,273.669617 125.056236,282.729553 
	C132.661560,289.330048 140.266891,295.930542 148.279541,303.007355 
	C155.175339,306.699554 162.071136,310.391754 169.460098,314.596527 
z"/>
<path fill="#01B1FF" opacity="1.000000" stroke="none" 
	d="
M268.999359,79.037239 
	C297.359467,90.437088 318.529175,110.008209 332.852631,136.731033 
	C363.798676,194.466232 346.183380,265.772858 292.060913,302.704956 
	C286.160004,306.731628 279.572784,309.752502 272.579407,313.022278 
	C271.569977,311.069366 271.052704,309.336029 271.038544,307.598602 
	C270.959412,297.906128 271.002106,288.212677 271.448853,278.483734 
	C285.860046,278.632202 298.690399,268.327728 300.819031,252.759094 
	C301.637634,246.771973 299.238922,242.723785 294.615509,242.035080 
	C289.879791,241.329636 286.835541,244.284882 285.916290,250.479980 
	C284.865479,257.561554 279.068726,262.839569 272.021362,262.646057 
	C272.011749,233.765030 272.011200,205.361130 272.423065,176.977295 
	C280.470276,177.049988 285.777405,182.440460 285.939880,190.674133 
	C286.104187,199.001007 285.939087,207.333832 286.005646,215.663361 
	C286.049652,221.165634 288.843201,224.319016 293.470306,224.323212 
	C298.079803,224.327393 300.928345,221.148087 300.970978,215.666473 
	C301.038330,207.003860 301.090240,198.338226 300.936432,189.677643 
	C300.800659,182.033005 297.906921,175.455353 292.576294,169.941986 
	C285.830048,162.964417 277.284180,160.955154 268.000488,160.461395 
	C268.000061,138.272583 267.936768,116.547432 268.045624,94.823151 
	C268.072021,89.559723 268.666229,84.299133 268.999359,79.037239 
z"/>
<path fill="#01DFFF" opacity="1.000000" stroke="none" 
	d="
M147.872223,302.531036 
	C140.266891,295.930542 132.661560,289.330048 125.252197,282.134705 
	C125.632050,280.245209 125.976151,278.950684 125.976799,277.655975 
	C126.003746,223.930634 126.009857,170.205261 125.949158,116.479988 
	C125.947433,114.953285 125.193375,113.427444 124.790115,111.901199 
	C130.922882,106.172203 137.055649,100.443207 143.580658,95.012589 
	C144.315247,97.746170 144.945267,100.180183 144.955307,102.616745 
	C145.050858,125.806038 145.041260,148.995758 144.963394,172.510300 
	C140.593033,178.684464 138.916779,185.247391 138.966629,192.460068 
	C139.088196,210.054169 139.269119,227.655090 138.906143,245.242538 
	C138.691269,255.653900 141.619431,264.466400 149.085342,272.198059 
	C148.659897,282.632874 148.266052,292.581940 147.872223,302.531036 
z"/>
<path fill="#01BCFF" opacity="1.000000" stroke="none" 
	d="
M268.703125,78.804321 
	C268.666229,84.299133 268.072021,89.559723 268.045624,94.823151 
	C267.936768,116.547432 268.000061,138.272583 267.538269,160.546143 
	C251.051620,161.040024 235.026825,160.985184 219.001190,160.466415 
	C218.998672,142.963699 218.996994,125.924911 219.428406,108.781204 
	C236.099869,109.273338 246.555603,118.889259 248.342087,134.842590 
	C248.489502,136.158798 248.587250,137.533325 249.048950,138.751572 
	C250.379303,142.261871 253.110794,144.186569 256.783386,143.675400 
	C260.567444,143.148712 263.359314,140.940002 262.948578,136.648346 
	C262.480316,131.755692 262.413788,126.610741 260.772614,122.082886 
	C255.048691,106.290848 243.054337,97.542572 227.001907,93.413849 
	C227.004150,85.080368 227.007462,77.207672 227.010788,69.334976 
	C241.256149,70.411911 255.081314,73.372009 268.703125,78.804321 
z"/>
<path fill="#01E6FF" opacity="1.000000" stroke="none" 
	d="
M124.498871,112.054840 
	C125.193375,113.427444 125.947433,114.953285 125.949158,116.479988 
	C126.009857,170.205261 126.003746,223.930634 125.976799,277.655975 
	C125.976151,278.950684 125.632050,280.245209 125.121132,281.821259 
	C118.837776,273.669617 112.881447,265.236511 107.186157,256.170868 
	C107.630753,254.577423 107.974091,253.616653 107.974815,252.655624 
	C108.002632,215.763214 108.011993,178.870758 107.948563,141.978439 
	C107.946228,140.620041 107.191628,139.262970 106.787613,137.905273 
	C112.594284,129.339676 118.400955,120.774078 124.498871,112.054840 
z"/>
<path fill="#01BBFF" opacity="1.000000" stroke="none" 
	d="
M271.003143,278.519562 
	C271.002106,288.212677 270.959412,297.906128 271.038544,307.598602 
	C271.052704,309.336029 271.569977,311.069366 272.237549,313.080750 
	C258.232971,320.662994 242.765457,323.662811 226.422211,324.328613 
	C226.003403,308.716309 226.003525,293.617371 226.470490,278.492249 
	C241.625931,278.483917 256.314545,278.501740 271.003143,278.519562 
z"/>
<path fill="#01D7FF" opacity="1.000000" stroke="none" 
	d="
M145.061890,172.185364 
	C145.041260,148.995758 145.050858,125.806038 144.955307,102.616745 
	C144.945267,100.180183 144.315247,97.746170 143.895782,94.849312 
	C151.291855,89.907860 158.765015,85.428055 166.610382,81.377411 
	C166.988617,108.189659 166.994629,134.572739 166.616486,161.060516 
	C157.668930,161.944321 150.795044,165.969131 145.061890,172.185364 
z"/>
<path fill="#02CEFF" opacity="1.000000" stroke="none" 
	d="
M167.000641,160.955826 
	C166.994629,134.572739 166.988617,108.189659 166.969666,81.327286 
	C177.992294,77.458794 189.027832,74.069588 200.516235,71.184273 
	C200.977386,80.353569 200.985703,89.018982 200.696213,97.878754 
	C184.191513,106.786865 176.335526,120.430397 176.372833,138.743607 
	C176.387665,146.025986 176.375275,153.308426 176.375275,160.955826 
	C172.898849,160.955826 169.949753,160.955826 167.000641,160.955826 
z"/>
<path fill="#03EDFF" opacity="1.000000" stroke="none" 
	d="
M106.522789,138.122421 
	C107.191628,139.262970 107.946228,140.620041 107.948563,141.978439 
	C108.011993,178.870758 108.002632,215.763214 107.974815,252.655624 
	C107.974091,253.616653 107.630753,254.577423 107.119049,255.818756 
	C94.583290,234.032562 90.461319,210.295181 92.535141,185.388840 
	C93.915039,168.816483 98.527237,153.102066 106.522789,138.122421 
z"/>
<path fill="#01C4FF" opacity="1.000000" stroke="none" 
	d="
M226.003662,278.518372 
	C226.003525,293.617371 226.003403,308.716309 226.004944,324.264648 
	C216.931931,324.182190 207.857254,323.650421 198.404083,322.578674 
	C198.350403,319.272797 198.930756,316.509155 198.955597,313.740540 
	C199.060883,302.000671 199.001221,290.259338 199.468719,278.490570 
	C208.624969,278.481201 217.314316,278.499786 226.003662,278.518372 
z"/>
<path fill="#01CDFF" opacity="1.000000" stroke="none" 
	d="
M199.001831,278.518524 
	C199.001221,290.259338 199.060883,302.000671 198.955597,313.740540 
	C198.930756,316.509155 198.350403,319.272797 198.013428,322.452606 
	C188.487549,320.109833 178.973816,317.353180 169.220963,313.865845 
	C168.993698,301.596100 169.005554,290.057037 169.483154,278.489532 
	C179.633224,278.480225 189.317520,278.499390 199.001831,278.518524 
z"/>
<path fill="#10D6FF" opacity="1.000000" stroke="none" 
	d="
M169.017426,278.517975 
	C169.005554,290.057037 168.993698,301.596100 168.974380,313.609558 
	C162.071136,310.391754 155.175339,306.699554 148.075882,302.769196 
	C148.266052,292.581940 148.659897,282.632874 149.418030,272.322205 
	C155.417313,276.424805 161.910202,278.372406 169.017426,278.517975 
z"/>
<path fill="#04C2FF" opacity="1.000000" stroke="none" 
	d="
M200.994003,97.684395 
	C200.985703,89.018982 200.977386,80.353569 200.948563,71.197495 
	C209.316315,70.179756 217.704575,69.652672 226.551819,69.230286 
	C227.007462,77.207672 227.004150,85.080368 226.535675,93.453232 
	C217.386047,93.008369 209.000961,94.075661 200.994003,97.684395 
z"/>
<path fill="#FCFEFF" opacity="1.000000" stroke="none" 
	d="
M200.696213,97.878754 
	C209.000961,94.075661 217.386047,93.008369 226.536758,93.914017 
	C243.054337,97.542572 255.048691,106.290848 260.772614,122.082886 
	C262.413788,126.610741 262.480316,131.755692 262.948578,136.648346 
	C263.359314,140.940002 260.567444,143.148712 256.783386,143.675400 
	C253.110794,144.186569 250.379303,142.261871 249.048950,138.751572 
	C248.587250,137.533325 248.489502,136.158798 248.342087,134.842590 
	C246.555603,118.889259 236.099869,109.273338 219.001953,108.705490 
	C205.832718,109.682533 196.190125,115.651978 193.349945,127.508804 
	C190.791397,138.189789 191.475983,149.647629 190.718933,160.930328 
	C201.121262,160.930328 210.061646,160.930328 219.002029,160.930328 
	C235.026825,160.985184 251.051620,161.040024 267.538635,161.010132 
	C277.284180,160.955154 285.830048,162.964417 292.576294,169.941986 
	C297.906921,175.455353 300.800659,182.033005 300.936432,189.677643 
	C301.090240,198.338226 301.038330,207.003860 300.970978,215.666473 
	C300.928345,221.148087 298.079803,224.327393 293.470306,224.323212 
	C288.843201,224.319016 286.049652,221.165634 286.005646,215.663361 
	C285.939087,207.333832 286.104187,199.001007 285.939880,190.674133 
	C285.777405,182.440460 280.470276,177.049988 272.157745,176.645264 
	C254.656189,176.309006 237.832397,176.324875 220.546707,176.253296 
	C208.395432,176.220490 196.706055,176.275116 184.554672,176.240967 
	C178.935806,176.142532 173.774155,175.987320 168.623154,176.156479 
	C160.350891,176.428131 154.240067,181.785172 154.138367,189.660553 
	C153.878494,209.786179 153.910172,229.918808 154.121429,250.045517 
	C154.195007,257.054596 159.197891,262.500885 166.175858,263.114563 
	C172.421143,263.663757 178.755493,263.200195 185.492065,263.325684 
	C197.634689,263.366974 209.335770,263.266083 221.477631,263.312927 
	C227.052780,263.496613 232.187790,263.600830 237.321442,263.554565 
	C248.891464,263.450287 260.460815,263.271576 272.030426,263.123169 
	C279.068726,262.839569 284.865479,257.561554 285.916290,250.479980 
	C286.835541,244.284882 289.879791,241.329636 294.615509,242.035080 
	C299.238922,242.723785 301.637634,246.771973 300.819031,252.759094 
	C298.690399,268.327728 285.860046,278.632202 271.448853,278.483734 
	C256.314545,278.501740 241.625931,278.483917 226.470490,278.492249 
	C217.314316,278.499786 208.624969,278.481201 199.468719,278.490570 
	C189.317520,278.499390 179.633224,278.480225 169.483170,278.489532 
	C161.910202,278.372406 155.417313,276.424805 149.449646,271.836456 
	C141.619431,264.466400 138.691269,255.653900 138.906143,245.242538 
	C139.269119,227.655090 139.088196,210.054169 138.966629,192.460068 
	C138.916779,185.247391 140.593033,178.684464 144.963394,172.510300 
	C150.795044,165.969131 157.668930,161.944321 166.616486,161.060516 
	C169.949753,160.955826 172.898849,160.955826 176.375275,160.955826 
	C176.375275,153.308426 176.387665,146.025986 176.372833,138.743607 
	C176.335526,120.430397 184.191513,106.786865 200.696213,97.878754 
z"/>
<path fill="#00BBFF" opacity="1.000000" stroke="none" 
	d="
M272.021362,262.646057 
	C260.460815,263.271576 248.891464,263.450287 237.321442,263.554565 
	C232.187790,263.600830 227.052780,263.496613 221.464310,262.903290 
	C221.007431,250.270386 221.004639,238.194931 221.350647,226.016357 
	C225.117233,224.585052 227.219086,222.291916 227.077225,218.427094 
	C226.932251,214.477203 224.428818,212.560974 220.983231,211.001389 
	C220.995972,199.114471 221.002289,187.727615 221.008606,176.340744 
	C237.832397,176.324875 254.656189,176.309006 271.745300,176.625183 
	C272.011200,205.361130 272.011749,233.765030 272.021362,262.646057 
z"/>
<path fill="#04C7FF" opacity="1.000000" stroke="none" 
	d="
M219.001190,160.466400 
	C210.061646,160.930328 201.121262,160.930328 190.718933,160.930328 
	C191.475983,149.647629 190.791397,138.189789 193.349945,127.508804 
	C196.190125,115.651978 205.832718,109.682533 218.568878,108.810417 
	C218.996994,125.924911 218.998672,142.963699 219.001190,160.466400 
z"/>
<path fill="#00C7FF" opacity="1.000000" stroke="none" 
	d="
M221.001846,226.119461 
	C221.004639,238.194931 221.007431,250.270386 221.023529,262.755493 
	C209.335770,263.266083 197.634689,263.366974 185.473862,262.915283 
	C185.014969,233.685028 185.015823,205.007401 185.016678,176.329758 
	C196.706055,176.275116 208.395432,176.220490 220.546707,176.253296 
	C221.002289,187.727615 220.995972,199.114471 220.632828,211.045990 
	C215.646683,211.991287 212.754669,214.277969 212.977158,219.147110 
	C213.201599,224.058945 216.554459,225.829773 221.001846,226.119461 
z"/>
<path fill="#07D2FF" opacity="1.000000" stroke="none" 
	d="
M184.554672,176.240967 
	C185.015823,205.007401 185.014969,233.685028 185.032318,262.773071 
	C178.755493,263.200195 172.421143,263.663757 166.175858,263.114563 
	C159.197891,262.500885 154.195007,257.054596 154.121429,250.045517 
	C153.910172,229.918808 153.878494,209.786179 154.138367,189.660553 
	C154.240067,181.785172 160.350891,176.428131 168.623154,176.156479 
	C173.774155,175.987320 178.935806,176.142532 184.554672,176.240967 
z"/>
<path fill="#FAFEFF" opacity="1.000000" stroke="none" 
	d="
M221.350647,226.016357 
	C216.554459,225.829773 213.201599,224.058945 212.977158,219.147110 
	C212.754669,214.277969 215.646683,211.991287 220.626419,211.546036 
	C224.428818,212.560974 226.932251,214.477203 227.077225,218.427094 
	C227.219086,222.291916 225.117233,224.585052 221.350647,226.016357 
z"/>
</svg>